<svg width="800" height="800" viewBox="0 0 800 800" fill="none" xmlns="http://www.w3.org/2000/svg">
<g clip-path="url(#clip0_141_4)">
<path d="M400 0C179.085 0 0 179.085 0 400C0 620.915 179.085 800 400 800C620.915 800 800 620.915 800 400C800 179.085 620.915 0 400 0ZM250.124 670.821H137.674V309.017H250.124V670.821ZM193.923 259.56C157.88 259.56 128.704 230.343 128.704 194.349C128.712 158.388 157.88 129.17 193.923 129.17C229.868 129.17 259.085 158.388 259.085 194.349C259.085 230.351 229.86 259.56 193.923 259.56ZM671.288 670.821H558.928V494.871C558.928 452.91 558.15 398.944 500.477 398.944C441.993 398.944 432.998 444.644 432.998 491.834V670.813H320.647V309.017H428.497V358.457H430.011C445.029 330.009 481.694 300.023 536.405 300.023C650.271 300.023 671.288 374.957 671.288 472.372V670.821Z" fill="white"/>
</g>
<defs>
<clipPath id="clip0_141_4">
<rect width="800" height="800" fill="white"/>
</clipPath>
</defs>
</svg>
