<svg width="730" height="97" viewBox="0 0 730 97" fill="none" xmlns="http://www.w3.org/2000/svg">
<path d="M0.045455 95V1.90909H38.5C45.4697 1.90909 51.4849 3.27273 56.5455 6C61.6364 8.69697 65.5606 12.4697 68.3182 17.3182C71.0758 22.1364 72.4545 27.7424 72.4545 34.1364C72.4545 40.5606 71.0455 46.1818 68.2273 51C65.4394 55.7879 61.4545 59.5 56.2727 62.1364C51.0909 64.7727 44.9394 66.0909 37.8182 66.0909H14.0909V48.3636H33.6364C37.0303 48.3636 39.8636 47.7727 42.1364 46.5909C44.4394 45.4091 46.1818 43.7576 47.3636 41.6364C48.5455 39.4848 49.1364 36.9848 49.1364 34.1364C49.1364 31.2576 48.5455 28.7727 47.3636 26.6818C46.1818 24.5606 44.4394 22.9242 42.1364 21.7727C39.8333 20.6212 37 20.0455 33.6364 20.0455H22.5455V95H0.045455ZM171.409 48.4545C171.409 58.697 169.439 67.3788 165.5 74.5C161.561 81.6212 156.227 87.0303 149.5 90.7273C142.803 94.4242 135.288 96.2727 126.955 96.2727C118.591 96.2727 111.061 94.4091 104.364 90.6818C97.6667 86.9545 92.3485 81.5455 88.4091 74.4545C84.5 67.3333 82.5455 58.6667 82.5455 48.4545C82.5455 38.2121 84.5 29.5303 88.4091 22.4091C92.3485 15.2879 97.6667 9.87879 104.364 6.18182C111.061 2.48485 118.591 0.63636 126.955 0.63636C135.288 0.63636 142.803 2.48485 149.5 6.18182C156.227 9.87879 161.561 15.2879 165.5 22.4091C169.439 29.5303 171.409 38.2121 171.409 48.4545ZM148.409 48.4545C148.409 42.3939 147.545 37.2727 145.818 33.0909C144.121 28.9091 141.667 25.7424 138.455 23.5909C135.273 21.4394 131.439 20.3636 126.955 20.3636C122.5 20.3636 118.667 21.4394 115.455 23.5909C112.242 25.7424 109.773 28.9091 108.045 33.0909C106.348 37.2727 105.5 42.3939 105.5 48.4545C105.5 54.5151 106.348 59.6364 108.045 63.8182C109.773 68 112.242 71.1667 115.455 73.3182C118.667 75.4697 122.5 76.5455 126.955 76.5455C131.439 76.5455 135.273 75.4697 138.455 73.3182C141.667 71.1667 144.121 68 145.818 63.8182C147.545 59.6364 148.409 54.5151 148.409 48.4545ZM184.545 95V1.90909H223C229.97 1.90909 235.985 3.16666 241.045 5.68182C246.136 8.16666 250.061 11.7424 252.818 16.4091C255.576 21.0455 256.955 26.5455 256.955 32.9091C256.955 39.3636 255.545 44.8485 252.727 49.3636C249.909 53.8485 245.909 57.2727 240.727 59.6364C235.545 61.9697 229.409 63.1364 222.318 63.1364H198V45.4091H218.136C221.53 45.4091 224.364 44.9697 226.636 44.0909C228.939 43.1818 230.682 41.8182 231.864 40C233.045 38.1515 233.636 35.7879 233.636 32.9091C233.636 30.0303 233.045 27.6515 231.864 25.7727C230.682 23.8636 228.939 22.4394 226.636 21.5C224.333 20.5303 221.5 20.0455 218.136 20.0455H207.045V95H184.545ZM236.955 52.4545L260.136 95H235.591L212.864 52.4545H236.955ZM266.25 20.1818V1.90909H344.932V20.1818H316.705V95H294.523V20.1818H266.25ZM355.92 95V1.90909H419.466V20.1818H378.42V39.2727H415.42V57.5909H378.42V95H355.92ZM518.659 48.4545C518.659 58.697 516.689 67.3788 512.75 74.5C508.811 81.6212 503.477 87.0303 496.75 90.7273C490.053 94.4242 482.538 96.2727 474.205 96.2727C465.841 96.2727 458.311 94.4091 451.614 90.6818C444.917 86.9545 439.598 81.5455 435.659 74.4545C431.75 67.3333 429.795 58.6667 429.795 48.4545C429.795 38.2121 431.75 29.5303 435.659 22.4091C439.598 15.2879 444.917 9.87879 451.614 6.18182C458.311 2.48485 465.841 0.63636 474.205 0.63636C482.538 0.63636 490.053 2.48485 496.75 6.18182C503.477 9.87879 508.811 15.2879 512.75 22.4091C516.689 29.5303 518.659 38.2121 518.659 48.4545ZM495.659 48.4545C495.659 42.3939 494.795 37.2727 493.068 33.0909C491.371 28.9091 488.917 25.7424 485.705 23.5909C482.523 21.4394 478.689 20.3636 474.205 20.3636C469.75 20.3636 465.917 21.4394 462.705 23.5909C459.492 25.7424 457.023 28.9091 455.295 33.0909C453.598 37.2727 452.75 42.3939 452.75 48.4545C452.75 54.5151 453.598 59.6364 455.295 63.8182C457.023 68 459.492 71.1667 462.705 73.3182C465.917 75.4697 469.75 76.5455 474.205 76.5455C478.689 76.5455 482.523 75.4697 485.705 73.3182C488.917 71.1667 491.371 68 493.068 63.8182C494.795 59.6364 495.659 54.5151 495.659 48.4545ZM531.795 95V1.90909H554.295V76.7273H593.023V95H531.795ZM627.17 1.90909V95H604.67V1.90909H627.17ZM729.159 48.4545C729.159 58.697 727.189 67.3788 723.25 74.5C719.311 81.6212 713.977 87.0303 707.25 90.7273C700.553 94.4242 693.038 96.2727 684.705 96.2727C676.341 96.2727 668.811 94.4091 662.114 90.6818C655.417 86.9545 650.098 81.5455 646.159 74.4545C642.25 67.3333 640.295 58.6667 640.295 48.4545C640.295 38.2121 642.25 29.5303 646.159 22.4091C650.098 15.2879 655.417 9.87879 662.114 6.18182C668.811 2.48485 676.341 0.63636 684.705 0.63636C693.038 0.63636 700.553 2.48485 707.25 6.18182C713.977 9.87879 719.311 15.2879 723.25 22.4091C727.189 29.5303 729.159 38.2121 729.159 48.4545ZM706.159 48.4545C706.159 42.3939 705.295 37.2727 703.568 33.0909C701.871 28.9091 699.417 25.7424 696.205 23.5909C693.023 21.4394 689.189 20.3636 684.705 20.3636C680.25 20.3636 676.417 21.4394 673.205 23.5909C669.992 25.7424 667.523 28.9091 665.795 33.0909C664.098 37.2727 663.25 42.3939 663.25 48.4545C663.25 54.5151 664.098 59.6364 665.795 63.8182C667.523 68 669.992 71.1667 673.205 73.3182C676.417 75.4697 680.25 76.5455 684.705 76.5455C689.189 76.5455 693.023 75.4697 696.205 73.3182C699.417 71.1667 701.871 68 703.568 63.8182C705.295 59.6364 706.159 54.5151 706.159 48.4545Z" fill="white"/>
</svg>
